HIERARCHY
ROOT Hips
{
	OFFSET 0.000000 0.000000 0.000000
	CHANNELS 6 Xposition Yposition Zposition Xrotation Yrotation Zrotation
	JOINT LeftUpLeg_virtual
	{
		OFFSET 0.000000 0.000000 0.000000
		CHANNELS 3 Xrotation Yrotation Zrotation
		JOINT LeftUpLeg
		{
			OFFSET 15.427100 -6.655098 0.678600
			CHANNELS 3 Xrotation Yrotation Zrotation
			JOINT LeftLeg
			{
				OFFSET 4.081073 -39.591068 13.024000
				CHANNELS 3 Xrotation Yrotation Zrotation
				JOINT LeftFoot
				{
					OFFSET -4.081074 -37.707932 -15.979700
					CHANNELS 3 Xrotation Yrotation Zrotation
					JOINT LeftToeBase
					{
						OFFSET 5.346399 -15.068900 20.645000
						CHANNELS 3 Xrotation Yrotation Zrotation
						JOINT LeftToe_End
						{
							OFFSET 2.754700 0.931300 11.300900
							CHANNELS 3 Xrotation Yrotation Zrotation
							End Site
							{
								OFFSET 0 0 0
							}
						}
					}
				}
			}
		}
	}
	JOINT RightUpLeg_virtual
	{
		OFFSET 0.000000 0.000000 0.000000
		CHANNELS 3 Xrotation Yrotation Zrotation
		JOINT RightUpLeg
		{
			OFFSET -15.569500 -6.655098 0.678600
			CHANNELS 3 Xrotation Yrotation Zrotation
			JOINT RightLeg
			{
				OFFSET -4.081825 -39.591045 13.023800
				CHANNELS 3 Xrotation Yrotation Zrotation
				JOINT RightFoot
				{
					OFFSET 4.081824 -37.707954 -15.979600
					CHANNELS 3 Xrotation Yrotation Zrotation
					JOINT RightToeBase
					{
						OFFSET -5.346400 -15.068900 20.645000
						CHANNELS 3 Xrotation Yrotation Zrotation
						JOINT RightToe_End
						{
							OFFSET -2.754700 0.931300 11.300900
							CHANNELS 3 Xrotation Yrotation Zrotation
							End Site
							{
								OFFSET 0 0 0
							}
						}
					}
				}
			}
		}
	}
	JOINT Spine_virtual
	{
		OFFSET 0.000000 0.000000 0.000000
		CHANNELS 3 Xrotation Yrotation Zrotation
		JOINT Spine
		{
			OFFSET -0.279200 12.230698 -2.892100
			CHANNELS 3 Xrotation Yrotation Zrotation
			JOINT Spine1
			{
				OFFSET -0.232667 10.192268 -1.242267
				CHANNELS 3 Xrotation Yrotation Zrotation
				JOINT Spine1_split
				{
					OFFSET -0.232667 10.192268 -1.242267
					CHANNELS 3 Xrotation Yrotation Zrotation
					JOINT Spine2
					{
						OFFSET -0.232667 10.192268 -1.242267
						CHANNELS 3 Xrotation Yrotation Zrotation
						JOINT Neck_virtual
						{
							OFFSET 0.000000 0.000000 0.000000
							CHANNELS 3 Xrotation Yrotation Zrotation
							JOINT Neck
							{
								OFFSET -0.418800 17.814194 8.416900
								CHANNELS 3 Xrotation Yrotation Zrotation
								JOINT Head
								{
									OFFSET 0.000000 7.031097 3.806800
									CHANNELS 3 Xrotation Yrotation Zrotation
									JOINT HeadTop_End
									{
										OFFSET 0.000000 24.646606 12.978600
										CHANNELS 3 Xrotation Yrotation Zrotation
										End Site
										{
											OFFSET 0 0 0
										}
									}
								}
							}
						}
						JOINT LeftShoulder_virtual
						{
							OFFSET 0.000000 0.000000 0.000000
							CHANNELS 3 Xrotation Yrotation Zrotation
							JOINT LeftShoulder
							{
								OFFSET 8.476499 7.247704 -3.868750
								CHANNELS 3 Xrotation Yrotation Zrotation
								JOINT LeftShoulder_split
								{
									OFFSET 8.476499 7.247704 -3.868750
									CHANNELS 3 Xrotation Yrotation Zrotation
									JOINT LeftArm
									{
										OFFSET 9.308998 -2.777710 0.208600
										CHANNELS 3 Xrotation Yrotation Zrotation
										JOINT LeftForeArm
										{
											OFFSET 29.972298 0.000000 0.000000
											CHANNELS 3 Xrotation Yrotation Zrotation
											JOINT LeftHand
											{
												OFFSET 26.026505 0.000000 0.000000
												CHANNELS 3 Xrotation Yrotation Zrotation
												End Site
												{
													OFFSET 0 0 0
												}
											}
										}
									}
								}
							}
						}
						JOINT RightShoulder_virtual
						{
							OFFSET 0.000000 0.000000 0.000000
							CHANNELS 3 Xrotation Yrotation Zrotation
							JOINT RightShoulder
							{
								OFFSET -7.570500 7.247704 -3.868750
								CHANNELS 3 Xrotation Yrotation Zrotation
								JOINT RightShoulder_split
								{
									OFFSET -7.570500 7.247704 -3.868750
									CHANNELS 3 Xrotation Yrotation Zrotation
									JOINT RightArm
									{
										OFFSET -9.308998 -2.777710 0.208500
										CHANNELS 3 Xrotation Yrotation Zrotation
										JOINT RightForeArm
										{
											OFFSET -29.972300 0.000000 0.000000
											CHANNELS 3 Xrotation Yrotation Zrotation
											JOINT RightHand
											{
												OFFSET -26.026505 0.000000 0.000000
												CHANNELS 3 Xrotation Yrotation Zrotation
												End Site
												{
													OFFSET 0 0 0
												}
											}
										}
									}
								}
							}
						}
					}
				}
			}
		}
	}
}
MOTION
Frames: 6
Frame Time: 0.03333333
68.497467 92.302315 43.633057 0.000000 0.000000 0.000000 4.869812 68.927906 -3.936484 -26.967667 -9.591005 -1.118082 18.847876 0.246910 -7.772386 7.327525 -18.487539 6.221498 0.069390 -2.860537 -0.863381 0.000000 0.000000 0.000000 4.869812 68.927906 -3.936484 6.439947 -12.962482 0.240510 31.423993 -1.379471 -2.695338 -4.451236 -14.505911 12.034301 -30.895295 -1.073893 2.094315 0.000000 0.000000 0.000000 4.869812 68.927906 -3.936484 1.813925 16.520947 -3.149379 0.267654 12.712500 -1.770098 0.000000 0.000000 0.000000 0.000000 0.000000 0.000000 0.303315 12.613132 -2.378698 31.151687 -16.920142 8.990529 -37.861173 -70.544523 -3.831469 0.000000 0.000000 0.000000 0.303315 12.613132 -2.378698 -2.077721 -8.797579 -14.650047 0.000000 0.000000 0.000000 25.493705 -51.832181 -33.182043 0.000042 -68.776556 0.000047 0.000000 0.000000 0.000000 0.303315 12.613132 -2.378698 -8.376128 33.670353 20.651463 0.000000 0.000000 0.000000 6.514657 31.976282 48.490648 0.000005 48.553356 -0.000007 0.000000 0.000000 0.000000 
67.953506 92.289330 43.282665 0.000000 0.000000 0.000000 4.265069 66.940355 -3.391412 -26.848454 -9.719193 -0.284141 18.993870 1.635697 -7.923177 7.094577 -18.111293 5.757123 0.069551 -2.860521 -0.863371 0.000000 0.000000 0.000000 4.265069 66.940355 -3.391412 6.761969 -12.361286 -0.866732 30.584484 -2.929272 -2.885887 -8.281988 -16.922250 10.231249 -20.124254 -1.661387 5.723799 0.000000 0.000000 0.000000 4.265069 66.940355 -3.391412 1.758218 15.665054 -2.786291 0.343534 12.111571 -1.597175 0.000000 0.000000 0.000000 0.000000 0.000000 0.000000 0.355241 12.030030 -2.142363 30.067719 -16.587195 7.620743 -36.544408 -68.821826 -2.824752 0.000000 0.000000 0.000000 0.355241 12.030030 -2.142363 -1.967089 -8.442201 -14.580900 0.000000 0.000000 0.000000 23.731684 -53.081700 -34.699328 0.000028 -66.037322 0.000039 0.000000 0.000000 0.000000 0.355241 12.030030 -2.142363 -8.428599 32.859057 21.486421 0.000000 0.000000 0.000000 5.768028 31.090949 48.692029 0.000012 48.134409 -0.000015 0.000000 0.000000 0.000000 
67.318474 92.556496 43.012241 0.000000 0.000000 0.000000 3.799206 64.496739 -3.134712 -26.275591 -9.523147 1.092706 18.583543 3.173901 -8.084733 7.028036 -17.895545 5.198380 0.069718 -2.860521 -0.863363 0.000000 0.000000 0.000000 3.799206 64.496739 -3.134712 8.525546 -11.383717 -0.549724 27.211480 -0.242191 -3.378410 -11.222457 -26.725369 7.125723 -8.328453 -0.706771 9.507657 0.000000 0.000000 0.000000 3.799206 64.496739 -3.134712 1.655266 14.940072 -2.458417 0.371863 11.541082 -1.378604 0.000000 0.000000 0.000000 0.000000 0.000000 0.000000 0.372756 11.478283 -1.856315 28.899299 -16.213865 6.271603 -35.170700 -67.009654 -1.806530 0.000000 0.000000 0.000000 0.372756 11.478283 -1.856315 -1.822198 -8.117085 -14.348525 0.000000 0.000000 0.000000 21.935731 -54.672157 -36.106562 0.000007 -62.965089 0.000009 0.000000 0.000000 0.000000 0.372756 11.478283 -1.856315 -8.552617 31.896895 22.612287 0.000000 0.000000 0.000000 5.447668 30.142516 48.410827 -0.000005 48.027623 0.000014 0.000000 0.000000 0.000000 
66.807533 92.986237 42.666992 0.000000 0.000000 0.000000 3.483931 61.874984 -2.680788 -25.316434 -9.418210 2.143896 17.617237 5.174201 -8.206059 7.116989 -17.657697 4.634224 0.069888 -2.860481 -0.863358 0.000000 0.000000 0.000000 3.483931 61.874984 -2.680788 9.797539 -13.805846 0.269557 23.614187 1.107109 -5.009611 -13.747684 -31.907277 4.095780 -8.091377 -0.227065 5.284608 0.000000 0.000000 0.000000 3.483931 61.874984 -2.680788 1.602380 14.348930 -2.565128 0.373125 11.056601 -1.378681 0.000000 0.000000 0.000000 0.000000 0.000000 0.000000 0.360280 11.001737 -1.801465 27.805505 -15.757829 5.758841 -34.237348 -64.938741 -1.557338 0.000000 0.000000 0.000000 0.360280 11.001737 -1.801465 -1.707232 -7.830359 -14.234790 0.000000 0.000000 0.000000 20.800332 -56.184446 -36.603694 0.000035 -60.431267 0.000040 0.000000 0.000000 0.000000 0.360280 11.001737 -1.801465 -8.647018 30.837785 23.797750 0.000000 0.000000 0.000000 5.562973 29.024124 47.757434 -0.000010 48.635281 0.000021 0.000000 0.000000 0.000000 
66.369698 93.333839 42.437519 0.000000 0.000000 0.000000 3.033842 58.941882 -2.464998 -24.563344 -8.704383 3.159860 17.101948 5.145366 -7.938521 6.833742 -15.732868 4.000283 0.070061 -2.860437 -0.863344 0.000000 0.000000 0.000000 3.033842 58.941882 -2.464998 10.617276 -14.910634 0.804546 20.433257 -0.361973 -6.128530 -14.681980 -32.236519 4.068971 -7.479763 -0.057157 2.652705 0.000000 0.000000 0.000000 3.033842 58.941882 -2.464998 1.579358 13.845703 -2.253006 0.473699 10.558941 -1.338844 0.000000 0.000000 0.000000 0.000000 0.000000 0.000000 0.448890 10.511832 -1.703655 25.544848 -15.119585 4.115350 -31.203818 -62.995600 0.076856 0.000000 0.000000 0.000000 0.448890 10.511832 -1.703655 -1.740806 -7.637741 -14.657101 0.000000 0.000000 0.000000 20.361281 -56.245744 -36.459768 -0.000008 -59.980645 -0.000023 0.000000 0.000000 0.000000 0.448890 10.511832 -1.703655 -8.518743 29.854784 24.506814 0.000000 0.000000 0.000000 6.262304 28.296248 46.432019 -0.000020 50.767826 0.000024 0.000000 0.000000 0.000000 
65.836617 92.877258 42.247726 0.000000 0.000000 0.000000 2.811540 55.989970 -2.505381 -25.247168 -7.698988 4.046531 18.927822 5.000738 -7.309070 5.521169 -14.219427 3.057320 0.070236 -2.860417 -0.863339 0.000000 0.000000 0.000000 2.811540 55.989970 -2.505381 10.417032 -14.810128 0.852134 19.595418 -0.065533 -6.504431 -16.276788 -32.458900 4.712588 -6.642495 -0.014864 1.361664 0.000000 0.000000 0.000000 2.811540 55.989970 -2.505381 1.807890 13.037411 -1.790050 0.805188 9.572525 -1.160786 0.000000 0.000000 0.000000 0.000000 0.000000 0.000000 0.763335 9.542935 -1.416158 19.419585 -13.964213 0.017148 -24.003247 -60.691155 3.453315 0.000000 0.000000 0.000000 0.763335 9.542935 -1.416158 -1.968492 -7.572952 -15.692868 0.000000 0.000000 0.000000 19.948742 -54.084395 -36.717021 0.000046 -62.208379 0.000055 0.000000 0.000000 0.000000 0.763335 9.542935 -1.416158 -8.124822 29.038717 24.523922 0.000000 0.000000 0.000000 7.747107 28.375567 44.150585 -0.000014 54.846436 0.000030 0.000000 0.000000 0.000000 
